<?xml version="1.0" encoding="utf-8"?>
<!-- Generator: Adobe Illustrator 22.0.1, SVG Export Plug-In . SVG Version: 6.00 Build 0)  -->
<svg version="1.1" id="Capa_1" xmlns="http://www.w3.org/2000/svg" xmlns:xlink="http://www.w3.org/1999/xlink" x="0px" y="0px"
	 viewBox="0 0 40 538" style="enable-background:new 0 0 40 538;" xml:space="preserve">
<style type="text/css">
	.st0{fill:#E52521;}
	.st1{fill:#4DAE38;}
	.st2{fill:#4DAD33;}
	.st3{fill:#010101;}
	.st4{fill:none;stroke:#010101;stroke-width:2;stroke-miterlimit:10;}
	.st5{fill:#F4E600;}
	.st6{enable-background:new    ;}
	.st7{fill:#1D1D1B;}
</style>
<g id="cambio-alt">
	<g id="exchange_alt_duotone_svg_Activos_Layer_1_Path_1_0_Layer0_0_FILL">
		<path class="st0" d="M40,529.3c0-0.5-0.2-1-0.6-1.3c-0.3-0.4-0.8-0.6-1.3-0.5H10v-3.8c0-0.8-0.5-1.4-1.2-1.7
			c-0.3-0.1-0.7-0.2-1-0.1c-0.4,0.1-0.7,0.3-1,0.5l-6.3,6.3c-0.4,0.3-0.6,0.8-0.6,1.3c0,0.5,0.2,1,0.6,1.3l6.3,6.3
			c0.3,0.3,0.6,0.5,1,0.5c0.4,0.1,0.7,0,1.1-0.1c0.3-0.1,0.6-0.4,0.8-0.7c0.2-0.3,0.3-0.7,0.3-1.1v-3.8h28.1c1,0,1.9-0.8,1.9-1.9
			V529.3z"/>
	</g>
	<g id="exchange_alt_duotone_svg_0_Layer0_0_MEMBER_1_FILL">
		<path class="st1" d="M39.5,516.2c0.4-0.3,0.6-0.8,0.6-1.3c0-0.5-0.2-1-0.6-1.3l-6.3-6.3c-0.5-0.5-1.3-0.7-2-0.4
			c-0.3,0.1-0.6,0.4-0.8,0.7c-0.2,0.3-0.3,0.7-0.3,1.1v3.8H1.9c-0.5,0-1,0.2-1.3,0.5c-0.4,0.3-0.6,0.8-0.6,1.3v1.3
			c0,0.5,0.2,1,0.6,1.3c0.3,0.4,0.8,0.6,1.3,0.5H30v3.8c0,0.4,0.1,0.8,0.3,1.1c0.2,0.3,0.5,0.5,0.8,0.7c0.3,0.1,0.7,0.2,1.1,0.1
			c0.4-0.1,0.7-0.2,1-0.5L39.5,516.2z"/>
	</g>
</g>
<g id="cambio">
	<g id="compress_alt_duotone_svg_Activos_Layer_1_Path_1_0_Layer0_0_FILL">
		<path class="st2" d="M20,480.9c0-1.2-0.9-2.1-2.1-2.1c0,0,0,0,0,0h-10c-0.4,0-0.9,0.1-1.2,0.4c-0.3,0.2-0.6,0.6-0.8,0.9
			c-0.2,0.4-0.2,0.8-0.1,1.2c0.1,0.4,0.3,0.8,0.6,1.1l2.9,2.8L0.4,494c-0.3,0.3-0.4,0.6-0.4,1c0,0.4,0.1,0.7,0.4,1l2.3,2.3
			c0.6,0.5,1.4,0.5,2,0l8.9-8.9l2.8,3c0.3,0.3,0.7,0.5,1.1,0.6c0.4,0.1,0.8,0,1.2-0.1c0.8-0.3,1.3-1.1,1.3-2L20,480.9z"/>
	</g>
	<g id="compress_alt_duotone_svg_0_Layer0_0_MEMBER_1_FILL">
		<path class="st0" d="M39.6,461.4l-2.3-2.3c-0.3-0.3-0.6-0.4-1-0.4c-0.4,0-0.7,0.1-1,0.4l-8.9,8.8l-2.8-3c-0.3-0.3-0.7-0.5-1.1-0.6
			c-0.4-0.1-0.8,0-1.2,0.1c-0.4,0.2-0.7,0.4-0.9,0.8c-0.3,0.4-0.4,0.8-0.4,1.3v10c0,1.2,0.9,2.1,2.1,2.1c0,0,0,0,0,0h10
			c0.4,0,0.9-0.1,1.2-0.4c0.3-0.2,0.6-0.6,0.8-0.9c0.2-0.4,0.2-0.8,0.1-1.2c-0.1-0.4-0.3-0.8-0.6-1.1l-2.9-2.8l8.9-8.9
			C40.1,462.9,40.1,462,39.6,461.4L39.6,461.4z"/>
	</g>
</g>
<g id="corner">
	<g id="corner_0_Layer0_0_FILL">
		<path class="st3" d="M38.5,435.9c-0.3-0.1-0.7,0-0.9,0.2L20,448L2,436.1c-0.5-0.4-1.3-0.4-1.8,0.2C0,436.6-0.1,437,0,437.4
			c0.1,0.3,0.3,0.6,0.5,0.8l18.8,12.4c0.2,0.1,0.4,0.2,0.7,0.2c0.2,0,0.5-0.1,0.7-0.2L39,438.1c0.3-0.2,0.5-0.5,0.5-0.8
			C39.7,436.7,39.2,436,38.5,435.9C38.6,435.9,38.5,435.9,38.5,435.9 M19.8,411.1c-0.7,0-1.3,0.6-1.3,1.3v21.5
			c-2.9,0.2-5.6,1.1-8,2.7l0,0c-0.5,0.3-1,0.7-1.4,1.1l0,0l-0.4,0.3c-0.5,0.5-0.6,1.2-0.1,1.8s1.2,0.6,1.8,0.1l0,0l0.3-0.2l0,0
			c0.4-0.3,0.8-0.6,1.2-0.9l0,0c2-1.3,4.2-2.1,6.6-2.3v9.5c0,0.3,0.1,0.6,0.4,0.9c0.2,0.2,0.6,0.4,0.9,0.4c0.3,0,0.7-0.1,0.9-0.4
			c0.2-0.2,0.4-0.5,0.4-0.9v-9.5c2.4,0.2,4.6,0.9,6.6,2.3c0.5,0.3,1,0.7,1.5,1.1c0.2,0.2,0.6,0.3,0.9,0.3c0.3,0,0.6-0.2,0.9-0.4
			c0.2-0.2,0.3-0.6,0.3-0.9c0-0.3-0.2-0.6-0.4-0.9c-0.6-0.5-1.2-0.9-1.8-1.4c-2.4-1.6-5.1-2.5-8-2.7V427h8.3c-0.3,0-0.6,0.1-0.9,0.4
			c-0.5,0.5-0.5,1.3,0,1.8c0.2,0.2,0.5,0.4,0.9,0.4h9.4c0.3,0,0.5-0.1,0.7-0.2c0.2-0.1,0.4-0.4,0.5-0.6c0.1-0.2,0.1-0.5,0-0.7
			l-3.3-12.4c-0.1-0.3-0.2-0.5-0.4-0.7c-0.2-0.2-0.5-0.3-0.8-0.3h-6.2l-0.3-1.3c-0.1-0.3-0.2-0.5-0.4-0.7c-0.2-0.2-0.5-0.3-0.8-0.3
			l-6.5-0.1c0-0.3-0.2-0.6-0.4-0.8C20.5,411.3,20.2,411.1,19.8,411.1 M26.9,416.1v0.2l2.1,8.2h-8v-9.7l5.5,0.1L26.9,416.1
			 M31.5,426.6c0.2-0.2,0.4-0.6,0.4-0.9c0-0.2-0.1-0.4-0.2-0.6c0-0.2,0-0.3,0-0.5l-1.9-7.5h4.8l2.6,9.9h-6.4
			C31,427,31.3,426.8,31.5,426.6L31.5,426.6z"/>
	</g>
</g>
<g id="falta">
	<path class="st3" d="M13.1,383.8c-2.2,0-4,1.8-4,4s1.8,4,4,4s4-1.8,4-4S15.3,383.8,13.1,383.8z M13.1,389.9c-1.1,0-2-0.9-2-2
		s0.9-2,2-2s2,0.9,2,2C15.1,389,14.2,389.9,13.1,389.9C13.1,389.9,13.1,389.9,13.1,389.9L13.1,389.9z M29,384.7l-1.7,1
		c-0.2,0.1-0.4,0.1-0.6,0l-1.6-1.3c-0.2-0.1-0.2-0.4-0.2-0.6l0.6-1.8c0.1-0.4,0-0.9-0.3-1.1c-4.3-3.4-6.7-6.1-12.1-6.1
		c-2.1,0-4.1,0.5-6,1.5c-1.6-1.6-4.1-1.6-5.7,0s-1.6,4.1,0,5.7c-3.3,6.4-0.8,14.4,5.6,17.7c6,3.1,13.3,1.2,17-4.4l9.5,5.4
		c0.4,0.3,1,0.1,1.3-0.3l4.9-6.6c0.3-0.4,0.2-1.1-0.2-1.4l-9.5-7.6C29.8,384.5,29.4,384.5,29,384.7L29,384.7z M2,378.8
		c0-1.1,0.9-2,2-2c0.5,0,1,0.2,1.4,0.5c-0.6,0.4-1.1,0.8-1.6,1.3c-0.5,0.5-0.9,1-1.3,1.5C2.2,379.8,2,379.3,2,378.8z M34,398
		c-0.2,0.2-0.4,0.3-0.7,0.1l-10-5.7c-0.8,1.2-3.6,6.5-10.3,6.5C7,399,2,394.1,1.9,387.9c0-3,1.2-5.8,3.3-7.9
		c5.1-5.1,11.5-3,13.8-1.5c0.6,0.4,4.4,3.5,4.4,3.5l-0.8,2.2c-0.1,0.4,0,0.9,0.3,1.1l3.3,2.6c0.3,0.3,0.8,0.3,1.1,0.1l2-1.2l7.9,6.3
		c0.2,0.2,0.3,0.5,0.1,0.7L34,398L34,398z"/>
</g>
<g id="penalty">
	<g id="penalty_0_Layer0_0_MEMBER_0_FILL">
		<path class="st3" d="M40,335.8c0-2.1-1.7-3.7-3.8-3.8H3.8c-2.1,0-3.7,1.7-3.8,3.8v22.5c0,0.1,0,0.2,0,0.3h2.5c0-0.1,0-0.2,0-0.3
			v-22.5c0-0.7,0.6-1.2,1.3-1.3h32.5c0.7,0,1.2,0.6,1.3,1.3v22.5c0,0.1,0,0.2,0,0.3H40c0-0.1,0-0.2,0-0.3V335.8z"/>
	</g>
	<g id="Layer0_0_MEMBER_0_FILL">
		<path class="st3" d="M17.5,357.8h5L24,353l-4-2.9l-4,2.9L17.5,357.8 M12,358.5l-0.3,1.3c1.3,1.9,3.2,3.3,5.5,4l1.1-0.7l-1.9-4
			L12,358.5 M12.1,348c-1.4,1.8-2.1,3.9-2.1,6.1v0.3l1,0.9l3.3-3l-0.8-4.4L12.1,348 M28.3,359.8l-0.3-1.3l-4.4,0.5l-1.9,4l1.1,0.7
			c1.1-0.3,2.2-0.8,3.1-1.5C26.8,361.5,27.6,360.7,28.3,359.8 M23.9,345.9l-0.5-1.2c-2.2-0.8-4.6-0.8-6.8,0l-0.5,1.2l3.9,2.2
			L23.9,345.9 M27.9,348l-1.3-0.1l-0.9,4.4l3.3,3l1-0.9v-0.3C30,351.9,29.3,349.7,27.9,348L27.9,348z"/>
	</g>
</g>
<g id="gol">
	<g id="Layer0_0_MEMBER_0_FILL-2">
		<path class="st3" d="M15,310h10l3.1-9.5l-8.1-5.9l-8.1,5.9L15,310 M4,311.5L3.5,314c2.6,3.9,6.5,6.7,10.9,8l2.2-1.3l-3.8-8.1
			L4,311.5 M4.2,290.5c-1.4,1.7-2.4,3.7-3.1,5.8c-0.7,2.1-1.1,4.3-1,6.5v0.6l2,1.7l6.5-6.1l-1.7-8.7L4.2,290.5 M36.5,314l-0.5-2.5
			l-8.8,1.1l-3.8,8.1l2.2,1.4C30.1,320.7,33.9,317.9,36.5,314 M27.8,286.3l-1-2.4c-4.4-1.5-9.1-1.5-13.5,0l-1,2.4l7.7,4.3
			L27.8,286.3 M35.8,290.5l-2.6-0.2l-1.7,8.7l6.5,6.1l2-1.7v-0.6c0-2.2-0.3-4.4-1.1-6.5C38.3,294.2,37.2,292.2,35.8,290.5
			L35.8,290.5z"/>
	</g>
	<ellipse class="st4" cx="20" cy="302.5" rx="19" ry="19.5"/>
</g>
<g id="amarilla-alt">
	<g id="clone_solid_svg_0_Layer0_0_FILL">
		<path class="st3" d="M1.1,243.8c-0.7,0.7-1.1,1.7-1.1,2.7V269c0,2.1,1.7,3.7,3.8,3.8h22.5c2.1,0,3.7-1.7,3.8-3.8v-3.8H13.8
			c-2.5,0-4.8-1.5-5.8-3.8c-0.3-0.8-0.5-1.6-0.5-2.4v-16.3H3.8C2.8,242.7,1.8,243.1,1.1,243.8z"/>
		<path class="st5" d="M40,236.5c0-1-0.4-2-1.1-2.7c-0.7-0.7-1.7-1.1-2.7-1.1H13.8c-2.1,0-3.7,1.7-3.8,3.7c0,0,0,0,0,0V259
			c0,2.1,1.7,3.7,3.8,3.8h22.5c2.1,0,3.7-1.7,3.8-3.8V236.5z"/>
	</g>
</g>
<g id="amarilla">
	<g id="clone_light_svg_0_Layer0_0_FILL">
		<path class="st3" d="M40,186.5c0-1-0.4-2-1.1-2.7c-0.7-0.7-1.7-1.1-2.7-1.1h-25c-2.1,0-3.7,1.7-3.8,3.7c0,0,0,0,0,0v3.8H3.8
			c-2.1,0-3.7,1.7-3.8,3.7c0,0,0,0,0,0v25c0,2.1,1.7,3.7,3.8,3.8h25c2.1,0,3.7-1.7,3.8-3.8v-3.8h3.8c2.1,0,3.7-1.7,3.8-3.8V186.5
			 M2.5,194c0-0.7,0.6-1.3,1.3-1.3h3.8v18.8c0,2.1,1.7,3.7,3.8,3.8H30v3.8c0,0.3-0.1,0.7-0.4,0.9c-0.2,0.2-0.5,0.4-0.9,0.4h-25
			c-0.3,0-0.7-0.1-0.9-0.4c-0.2-0.2-0.4-0.5-0.4-0.9V194 M36.3,185.3c0.7,0,1.3,0.6,1.3,1.3v25c0,0.3-0.1,0.7-0.4,0.9
			c-0.2,0.2-0.5,0.4-0.9,0.4h-25c-0.3,0-0.7-0.1-0.9-0.4c-0.2-0.2-0.4-0.5-0.4-0.9v-25c0-0.7,0.6-1.3,1.3-1.3H36.3z"/>
		<path class="st5" d="M37.1,185.6c-0.2-0.2-0.5-0.4-0.9-0.4h-25c-0.7,0-1.3,0.6-1.3,1.3v25c0,0.3,0.1,0.7,0.4,0.9
			c0.2,0.2,0.5,0.4,0.9,0.4h25c0.3,0,0.6-0.1,0.9-0.4c0.2-0.2,0.4-0.5,0.4-0.9v-25C37.5,186.2,37.4,185.8,37.1,185.6z"/>
	</g>
</g>
<g id="roja-alt">
	<g id="Layer0_0_FILL">
		<path class="st3" d="M1.1,143.8c-0.7,0.7-1.1,1.7-1.1,2.7V169c0,2.1,1.7,3.7,3.8,3.8h22.5c2.1,0,3.7-1.7,3.8-3.8v-3.8H13.8
			c-2.5,0-4.8-1.5-5.8-3.8c-0.3-0.8-0.5-1.6-0.5-2.4v-16.3H3.8C2.8,142.7,1.8,143.1,1.1,143.8z"/>
		<path class="st0" d="M40,136.5c0-1-0.4-2-1.1-2.7c-0.7-0.7-1.7-1.1-2.7-1.1H13.8c-2.1,0-3.7,1.7-3.8,3.7c0,0,0,0,0,0V159
			c0,2.1,1.7,3.7,3.8,3.8h22.5c2.1,0,3.7-1.7,3.8-3.8V136.5z"/>
	</g>
</g>
<g id="roja">
	<g id="clone_light_svg_0_Layer0_0_FILL-2">
		<path class="st3" d="M40,86.5c0-1-0.4-2-1.1-2.7c-0.7-0.7-1.7-1.1-2.7-1.1h-25c-2.1,0-3.7,1.7-3.8,3.7c0,0,0,0,0,0v3.8H3.8
			C1.7,90.2,0,91.9,0,94c0,0,0,0,0,0v25c0,2.1,1.7,3.7,3.8,3.8h25c2.1,0,3.7-1.7,3.8-3.8v-3.8h3.8c2.1,0,3.7-1.7,3.8-3.8V86.5
			 M2.5,94c0-0.7,0.6-1.3,1.3-1.3h3.8v18.8c0,2.1,1.7,3.7,3.8,3.8H30v3.8c0,0.3-0.1,0.7-0.4,0.9c-0.2,0.2-0.5,0.4-0.9,0.4h-25
			c-0.3,0-0.7-0.1-0.9-0.4c-0.2-0.2-0.4-0.5-0.4-0.9V94 M36.3,85.3c0.7,0,1.3,0.6,1.3,1.3v25c0,0.3-0.1,0.7-0.4,0.9
			c-0.2,0.2-0.5,0.4-0.9,0.4h-25c-0.3,0-0.7-0.1-0.9-0.4c-0.2-0.2-0.4-0.5-0.4-0.9v-25c0-0.7,0.6-1.3,1.3-1.3H36.3z"/>
		<path class="st0" d="M37.1,85.6c-0.2-0.2-0.5-0.4-0.9-0.4h-25c-0.7,0-1.3,0.6-1.3,1.3v25c0,0.3,0.1,0.7,0.4,0.9
			c0.2,0.2,0.5,0.4,0.9,0.4h25c0.3,0,0.6-0.1,0.9-0.4c0.2-0.2,0.4-0.5,0.4-0.9v-25C37.5,86.2,37.4,85.8,37.1,85.6z"/>
	</g>
</g>
<g id="var_cuadro">
	<g id="rectangle_landscape_light_svg_0_Layer0_0_FILL">
		<path class="st3" d="M40,45.8c0-2.1-1.7-3.7-3.8-3.8H3.8C1.7,42,0,43.7,0,45.8v22.5c0,1,0.4,2,1.1,2.7C1.8,71.6,2.8,72,3.8,72
			h32.5c2.1,0,3.7-1.7,3.8-3.8V45.8 M37.1,44.9c0.2,0.2,0.4,0.5,0.4,0.9v22.5c0,0.7-0.6,1.2-1.3,1.3H3.8c-0.7,0-1.2-0.6-1.3-1.3
			V45.8c0-0.7,0.6-1.2,1.3-1.3h32.5C36.6,44.5,36.9,44.6,37.1,44.9z"/>
	</g>
	<g id="rectangle_landscape_light_svg_0_Layer0_1_FILL">
		<path class="st3" d="M9.1,49.5H6.3l3.3,14.9h3l3.3-14.9h-2.8l-2,10.7L9.1,49.5 M21.4,49.5h-3l-3.2,14.9H18l0.4-2.5h3.1l0.5,2.5
			h2.9L21.4,49.5 M20.9,58.8H19l1-5.4L20.9,58.8 M31.6,49.9c-0.6-0.3-1.3-0.4-1.9-0.4h-4.6v14.9h2.7v-6.1H28c0.3,0,0.5,0.1,0.7,0.3
			c0.2,0.4,0.4,0.7,0.5,1.2l1.5,4.6h3.1l-1.3-4.3c-0.1-0.3-0.2-0.6-0.4-0.9c-0.1-0.3-0.3-0.5-0.4-0.8c-0.2-0.2-0.4-0.4-0.7-0.5
			c0.4-0.1,0.7-0.3,1-0.6c0.4-0.4,0.7-0.9,0.9-1.5c0.2-0.7,0.3-1.4,0.3-2.2c0-0.8-0.1-1.6-0.4-2.4C32.4,50.7,32,50.2,31.6,49.9
			 M27.8,55.6v-3H29c0.4,0,0.8,0.1,1,0.4c0.2,0.3,0.3,0.7,0.3,1.1c0,0.3-0.1,0.6-0.2,0.9c-0.1,0.2-0.2,0.4-0.5,0.5
			c-0.2,0.1-0.5,0.2-0.7,0.2L27.8,55.6z"/>
	</g>
</g>
<g id="var_tv">
	<path class="st3" d="M33.5,30h-27C6.2,30,6,30.2,6,30.5v1C6,31.8,6.2,32,6.5,32h27c0.3,0,0.5-0.2,0.5-0.5v-1
		C34,30.2,33.8,30,33.5,30z M38,0H2C0.9,0,0,0.9,0,2v22c0,1.1,0.9,2,2,2h36c1.1,0,2-0.9,2-2V2C40,0.9,39.1,0,38,0z M38,24H2V2h36V24
		z"/>
	<g class="st6">
		<path class="st7" d="M11.1,18L8,9.4h1.9l2.2,6.4l2.1-6.4H16L12.9,18H11.1z"/>
	</g>
	<g class="st6">
		<path class="st7" d="M24,18h-1.9l-0.8-2h-3.4l-0.7,2h-1.8l3.3-8.6h1.8L24,18z M20.8,14.6l-1.2-3.2l-1.2,3.2H20.8z"/>
		<path class="st7" d="M24.9,18V9.4h3.7c0.9,0,1.6,0.1,2,0.2s0.7,0.4,1,0.8s0.4,0.8,0.4,1.4c0,0.6-0.2,1.2-0.6,1.6s-0.9,0.7-1.7,0.8
			c0.4,0.2,0.7,0.5,0.9,0.7s0.6,0.7,1,1.4l1,1.7h-2.1l-1.3-1.9c-0.4-0.7-0.8-1.1-0.9-1.3s-0.3-0.3-0.5-0.4s-0.5-0.1-0.9-0.1h-0.4V18
			H24.9z M26.6,13h1.3c0.8,0,1.4,0,1.6-0.1s0.4-0.2,0.5-0.4s0.2-0.4,0.2-0.6c0-0.3-0.1-0.5-0.2-0.7s-0.4-0.3-0.7-0.3
			c-0.1,0-0.6,0-1.3,0h-1.4V13z"/>
	</g>
</g>
</svg>
