<?xml version="1.0" encoding="utf-8"?>
<!-- Generator: Adobe Illustrator 22.1.0, SVG Export Plug-In . SVG Version: 6.00 Build 0)  -->
<svg version="1.1" id="Capa_1" xmlns="http://www.w3.org/2000/svg" xmlns:xlink="http://www.w3.org/1999/xlink" x="0px" y="0px"
	 viewBox="0 0 42 40" style="enable-background:new 0 0 42 40;" xml:space="preserve">
<style type="text/css">
	.st0{fill:#FFFFFF;}
</style>
<g>
	<path class="st0" d="M32.9,37.6c-2,0-7.9,0.1-9,0.1v-0.8l2.2-0.3c3.1-0.5,3.6-1.6,3.6-8.3v-8.7H11.6v8.7c0,6.7,0.5,7.7,3.6,8.3
		l2.2,0.3v0.8c-1.1,0-6.9-0.1-9-0.1c-2,0-7.2,0.1-8.3,0.1v-0.8L2,36.6c2.7-0.5,3.2-1.8,3.2-8.3V9.4c0-6.5-0.5-7.8-3.2-8.3L0,0.8V0
		c1.1,0,6.3,0.1,8.3,0.1s7.9-0.1,9-0.1v0.8l-2.2,0.4c-3.1,0.5-3.6,1.6-3.6,8.3v8.3h18.1V9.5c0-6.7-0.5-7.7-3.6-8.3l-2.2-0.3V0
		c1.1,0,6.9,0.1,9,0.1c2,0,7.2-0.1,8.3-0.1v0.8l-1.8,0.4c-2.7,0.5-3.2,1.8-3.2,8.2v18.9c0,6.5,0.5,7.8,3.2,8.3l1.9,0.3v0.8
		C40.2,37.7,34.9,37.6,32.9,37.6z"/>
	<g>
		<path d="M18.4,27.3c-0.6,2.9-1.3,3.9-2.3,5.1c0,0.6,0.1,1.2,0.1,1.8c0,2.1-0.1,5.4-2.3,5.8c-1,0.2-1.4-0.8-1.5-1.7
			c-0.2-2.1,1.5-3.9,2.6-5.1L14.5,28l-0.1,0.3c0,0.1-0.2,0.1-0.2,0l0.1-0.6c0.1-0.4,1.2-0.6,1.2-0.2l0.4,4.8c1-1.1,1.6-2.1,2.2-4.9
			C18.3,27.2,18.5,27.2,18.4,27.3z M12.5,38.3c0.2,2.1,1.8,1.8,2.2,0.1c0.3-1.4,0.3-3.4,0.2-4.9C14.1,34.4,12.3,36.2,12.5,38.3z
			 M14.4,26.1c-0.1-0.3,0.1-0.7,0.5-0.8c0.4-0.1,0.7,0.1,0.8,0.5c0.1,0.4-0.1,0.7-0.5,0.8C14.8,26.7,14.5,26.5,14.4,26.1z"/>
		<path d="M18.4,30.4c-0.5-0.8-0.6-2-0.2-2.9c-0.8-0.8-1.1-2.2-0.5-3.2c0.5-0.8,1.7-1.2,2.7-0.6c1.4,0.9,1.8,3.2,1.8,4.6
			c1.1-0.3,1.8-1.4,2-2.5c0-0.1,0.2-0.1,0.2,0c-0.2,1.1-1,2.3-2.2,2.7c-0.1,1.1-0.4,1.8-0.7,2.3C20.8,31.7,19.2,31.6,18.4,30.4z
			 M19.2,27.9c0.8,0.5,1.9,0.8,2.9,0.5c0-1.6-0.4-3.8-1.8-4.6c-0.9-0.5-2-0.1-2.4,0.6c-0.6,0.9-0.3,2.2,0.4,2.9
			c0.1-0.2,0.2-0.3,0.3-0.5c0.2-0.3,0.9-0.2,0.8,0.2C19.3,27.3,19.2,27.6,19.2,27.9z M21.3,30.8c0.4-0.3,0.7-1.1,0.8-2.2
			c-1,0.2-2.1,0-3-0.5c-0.1,0.8,0,1.8,0.4,2.4C19.8,31.2,20.6,31.5,21.3,30.8z"/>
		<path d="M30.6,24.4c-0.5,2-1.4,2.7-2.4,2.5c-0.2,1.3-0.6,2.8-1.6,3c-1.9,0.3-2.3-3.4-2.4-4.6c0-0.5,1.1-0.7,1.2-0.3
			c0.2,1.9,0.4,3.8,0.8,4.3c0.3,0.4,0.6,0.4,1,0c0.5-0.5,0.7-1.3,0.9-2.5c-0.9-0.3-1.7-1.3-1.9-2.2c-0.4-1.8,1.5-2.3,1.9-0.3
			c0.2,0.8,0.2,2,0.1,2.4c1.1,0.3,1.9-0.7,2.3-2.4C30.5,24.3,30.7,24.3,30.6,24.4z M28,24.4c-0.4-1.7-2-1.4-1.6,0.3
			c0.2,0.9,0.8,1.8,1.7,2.1C28.1,26,28.1,25.1,28,24.4z"/>
		<path d="M32.7,28.3c1.3-0.5,2-3.4,2.3-4.9c0-0.1,0.2-0.1,0.2,0c-0.4,1.9-1.1,4.8-2.7,5.2c-0.7,0.2-1.4-0.1-1.8-0.7
			c-0.8-1.3-0.7-3.9,0.8-5c0.4-0.3,1.1-0.4,1.4-0.1c0.3,0.3,0.1,0.8-0.2,1.2c-0.3,0.3-0.8,0.6-1.2,0.7
			C31.3,26.2,31.6,28.7,32.7,28.3z M31.6,24.5c0.4-0.1,0.7-0.3,1-0.6c0.5-0.5,0.3-1.3-0.3-1C31.9,23.1,31.7,23.7,31.6,24.5z"/>
		<path d="M42,21.7c-0.5,2.2-1.1,3.7-1.6,4.6c-0.2,0.3-0.3,0.4-0.6,0.4c-1.6-0.1-1.6-3-1.6-4.1c-0.1-2.2-0.6-0.1-0.8,0.7
			c-0.2,1.1-0.4,2-0.6,3.2c-0.1,0.4-0.1,0.8-0.6,0.9c-0.7,0.1-1-0.6-1-1.3C35,25.1,35,23.9,35,22.8c0-0.5,1.2-0.8,1.2-0.3
			c0,0.1,0.1,5.7,0.4,4.1l0.7-3.5c0.1-0.3,0.2-1.1,0.4-1.5c0.2-0.4,0.4-0.6,0.8-0.6c0.8,0.1,0.9,1.3,1,2c0.1,1.2,0.1,2.8,0.5,3.3
			c0.1,0.2,0.3-0.1,0.3-0.2c0.5-0.8,1.1-2.7,1.6-4.6C41.9,21.6,42,21.6,42,21.7z"/>
	</g>
	<ellipse cx="38.4" cy="19.3" rx="0.2" ry="0.7"/>
	<ellipse transform="matrix(0.3291 -0.9443 0.9443 0.3291 7.7182 50.4979)" cx="39.4" cy="19.8" rx="0.7" ry="0.2"/>
	<ellipse transform="matrix(0.7071 -0.7071 0.7071 0.7071 -2.9533 34.4629)" cx="40.1" cy="20.8" rx="0.7" ry="0.2"/>
	<ellipse transform="matrix(0.9313 -0.3642 0.3642 0.9313 -5.1882 16.2808)" cx="40.6" cy="21.9" rx="0.7" ry="0.2"/>
</g>
</svg>
