<?xml version="1.0" encoding="utf-8"?>
<!-- Generator: Adobe Illustrator 22.1.0, SVG Export Plug-In . SVG Version: 6.00 Build 0)  -->
<svg version="1.1" id="Capa_1" xmlns="http://www.w3.org/2000/svg" xmlns:xlink="http://www.w3.org/1999/xlink" x="0px" y="0px"
	 viewBox="0 0 559 389" style="enable-background:new 0 0 559 389;" xml:space="preserve">
<style type="text/css">
	.st0{fill:#BABABA;}
	.st1{fill:#999999;}
	.st2{fill:#989898;}
</style>
<g>
	<rect x="183.4" class="st0" width="58.8" height="230.5"/>
	<polygon class="st1" points="183.3,230.5 243.4,230.5 316.7,64.9 256.9,64.5 193.6,207.5 	"/>
	<polygon class="st0" points="375.3,230.6 316.4,230.6 256.8,64.3 316.5,63.7 	"/>
	<polygon class="st2" points="64.7,325.8 26.8,325.8 26.8,285 0,285 0,293.5 4.8,293.5 4.8,387.5 26.8,387.5 26.8,343.6 64.7,343.6 
		64.7,387.5 86.8,387.5 86.8,285 64.7,285 	"/>
	<polygon class="st2" points="128.5,343.6 162.6,343.6 162.6,326.6 128.5,326.6 128.5,301.8 172.5,301.8 172.5,285 102,285 
		102,291.5 106.9,291.5 106.9,387.5 174.3,387.5 174.3,370.7 128.5,370.7 	"/>
	<polygon class="st2" points="252.3,350.3 210.8,285 210.8,285 184.7,285 184.7,291.5 189.5,291.5 189.5,387.5 208.6,387.5 
		208.6,318.7 252.6,387.5 271.5,387.5 271.5,285 252.3,285 	"/>
	<polygon class="st2" points="354.4,350.3 312.9,285 312.8,285 286.8,285 286.8,291.5 291.6,291.5 291.6,387.5 310.7,387.5 
		310.7,318.7 354.7,387.5 373.6,387.5 373.6,285 354.4,285 	"/>
	<polygon class="st2" points="415.3,343.6 449.4,343.6 449.4,326.6 415.3,326.6 415.3,301.8 459.3,301.8 459.3,285 389,285 
		389,291.5 393.8,291.5 393.8,387.5 461.1,387.5 461.1,370.7 415.3,370.7 	"/>
	<path class="st2" d="M512.6,283.5c-27.9,0-46.2,20.1-46.2,52.6c0,32.8,18.2,52.9,46.2,52.9c27.9,0,46.4-20.1,46.4-52.8
		S540.7,283.5,512.6,283.5 M512.6,373.2c-14.3,0-23.2-12.1-23.2-37.1c0-24.7,8.7-36.8,23.2-36.8c14.5,0,23.3,12.1,23.3,36.9
		C536,361.1,527.1,373.2,512.6,373.2"/>
</g>
</svg>
