<?xml version="1.0" encoding="utf-8"?>
<!-- Generator: Adobe Illustrator 22.1.0, SVG Export Plug-In . SVG Version: 6.00 Build 0)  -->
<svg version="1.1" id="Capa_1" xmlns="http://www.w3.org/2000/svg" xmlns:xlink="http://www.w3.org/1999/xlink" x="0px" y="0px"
	 viewBox="0 0 261 39" style="enable-background:new 0 0 261 39;" xml:space="preserve">
<style type="text/css">
	.st0{fill:#005B98;}
</style>
<g>
	<path class="st0" d="M32.8,38.3c-2,0-7.9,0.1-9,0.1v-0.8l2.2-0.3c3.1-0.5,3.6-1.6,3.6-8.3v-8.7h-18V29c0,6.7,0.5,7.7,3.6,8.3
		l2.2,0.3v0.8c-1.1,0-6.9-0.1-9-0.1c-2,0-7.2,0.1-8.3,0.1v-0.8L2,37.3c2.7-0.5,3.2-1.8,3.2-8.3V10.2c0-6.5-0.5-7.8-3.2-8.3L0,1.6
		V0.8c1.1,0,6.3,0.1,8.3,0.1s7.9-0.1,9-0.1v0.8L15.1,2c-3.1,0.5-3.6,1.6-3.6,8.3v8.3h18v-8.3c0-6.7-0.5-7.7-3.6-8.3l-2.2-0.3V0.8
		c1.1,0,6.9,0.1,9,0.1c2,0,7.2-0.1,8.3-0.1v0.8L39.2,2C36.5,2.5,36,3.8,36,10.2V29c0,6.5,0.5,7.8,3.2,8.3l1.9,0.3v0.8
		C40,38.4,34.8,38.3,32.8,38.3z"/>
	<path class="st0" d="M72.2,38.3h-5.9c-3.2,0-11-0.1-13.1-0.1c-2,0-9,0.1-10.1,0.1v-0.8l1.9-0.3c2.7-0.5,3.2-1.8,3.2-8.3V10.2
		c0-6.5-0.5-7.8-3.2-8.3l-1.9-0.3V0.8c1.1,0,8.4,0.1,10.4,0.1s11.8-0.1,12.8-0.1h4.5l1.6,7.9h-0.9l-1.4-2c-2.3-3.5-4.2-4.5-9-4.5H60
		c-2.4,0-4,0.3-5.4,0.5V18l4.2-0.1c5.7-0.2,6.9-1.1,7.3-4.3l0.2-1.5h1c0,1.2-0.1,4.6-0.1,6.6c0,2.1,0.1,5.5,0.1,6.7h-1l-0.1-1.1
		c-0.4-3.4-1.4-4.4-7.3-4.6l-4.2-0.1V30c0,5.8,0.9,6.8,5.8,6.8h2.1c4.8,0,6.5-0.8,9.1-4.7l1.3-1.8h0.9L72.2,38.3z"/>
	<path class="st0" d="M106.9,38.6c-4.6,0-7.4-2-9.9-5.7l-7.9-11.7c-1.4,0-2.4-0.1-3.2-0.1V29c0,6.7,0.5,7.7,3.6,8.3l2.2,0.3v0.8
		c-1.1,0-6.9-0.1-9-0.1c-2,0-7.2,0.1-8.3,0.1v-0.8l1.9-0.3c2.7-0.5,3.2-1.8,3.2-8.3V10.2c0-6.5-0.5-7.8-3.2-8.3l-1.9-0.3V0.8
		c1.1,0,6.6,0.1,8.6,0.1s5.7-0.1,8.3-0.1c8,0,13.5,3.3,13.5,9.5c0,4.7-4,8.1-9.1,9.7l8.3,12c3,4.4,4.3,5.4,7.4,5.4l0.1,0.8
		C110,38.5,108.9,38.6,106.9,38.6z M90.4,2.1c-2,0-3.4,0.2-4.5,0.5v17.2c0.8,0.1,1.8,0.2,3.2,0.2c5.2,0,8.7-2.4,8.7-9.1
		C97.9,5.1,95.4,2.1,90.4,2.1z"/>
	<path class="st0" d="M142.7,38.3c-2,0-8.1,0.1-9.2,0.1v-0.8l1.7-0.2c2.2-0.3,3-1.1,3-2.6c0-0.8-0.3-2-0.8-3.4l-2.6-7.1H121
		l-1.9,5.1c-0.6,1.6-1.1,3.5-1.1,4.8c0,1.6,0.8,2.8,3,3.2l1.6,0.2v0.8c-1.1,0-4.4-0.1-6.5-0.1c-2,0-5.5,0.1-6.6,0.1v-0.8l0.9-0.2
		c2.4-0.5,4.1-2.4,5.7-6.4l11.3-28.3l3.7-2.7h1.1l12.4,32.2c1.2,3.1,2.5,4.7,4.6,5.1l1.3,0.2v0.9C149.4,38.4,144.7,38.3,142.7,38.3z
		 M128,5.7l-6.3,16.8h12.5L128,5.7z"/>
	<path class="st0" d="M179.1,38.3h-6c-3.2,0-9.7-0.1-11.7-0.1c-2.1,0-9.4,0.1-10.6,0.1v-0.8l1.9-0.3c2.7-0.5,3.2-1.8,3.2-8.3V10.2
		c0-6.5-0.5-7.8-3.2-8.3l-1.9-0.3V0.8c1.1,0,6.5,0.1,8.5,0.1s8.1-0.1,9.1-0.1v0.8l-2,0.3c-3.5,0.6-4.1,1.4-4.1,8.3V30
		c0,5.8,0.9,6.8,5.8,6.8h1.8c4.5,0,6.2-0.9,8.6-5l1.5-2.5h1L179.1,38.3z"/>
	<path class="st0" d="M198.5,38.5c-5.4,0-6.5-0.2-9-0.2c-2,0-7.3,0.1-8.4,0.1v-0.8l1.9-0.3c2.7-0.5,3.2-1.8,3.2-8.3V10.2
		c0-6.5-0.5-7.8-3.2-8.3l-1.9-0.3V0.8c1.1,0,5.2,0.1,7.3,0.1c2.2,0,5.4-0.1,7.9-0.1c13.3,0,22.7,6.6,22.7,18.8
		C219,32,210,38.5,198.5,38.5z M195.8,2.2c-1.3,0-2.4,0.1-3.2,0.3v27.7c0,5.4,1.3,6.8,6.7,6.8c7.3,0,12.4-5.2,12.4-16.9
		S205.8,2.2,195.8,2.2z"/>
	<path class="st0" d="M242,39c-11.2,0-19-7.3-19-19.4c0-11.9,8.1-19.4,19-19.4c11.2,0,19,7.3,19,19.4C261,31.6,252.9,39,242,39z
		 M241,1.6c-7,0-10.8,6-10.8,16.4c0,11.6,4.6,19.6,12.6,19.6c7.1,0,10.8-6,10.8-16.4C253.7,9.6,249.1,1.6,241,1.6z"/>
</g>
</svg>
